<svg width="256" height="256" viewBox="0 0 256 256" fill="none" xmlns="http://www.w3.org/2000/svg">
<g clip-path="url(#clip0_218_11)">
<path d="M127.5 169.812C150.643 169.812 169.957 150.59 169.957 127.458C169.957 104.243 150.643 85.0218 127.5 85.0218C104.356 85.0218 85.1256 104.243 85.1256 127.458C85.1256 150.59 104.356 169.812 127.5 169.812ZM53.7403 137.194C59.0683 137.194 63.4806 132.784 63.4806 127.458C63.4806 122.05 59.0683 117.723 53.7403 117.723C48.4123 117.723 44 122.05 44 127.458C44 132.784 48.4123 137.194 53.7403 137.194ZM75.3021 85.0218C80.7132 85.0218 85.0422 80.6118 85.0422 75.2865C85.0422 69.9611 80.7132 65.5511 75.3021 65.5511C69.9741 65.5511 65.5618 69.9611 65.5618 75.2865C65.5618 80.6118 69.9741 85.0218 75.3021 85.0218ZM127.5 63.4708C132.828 63.4708 137.24 59.0608 137.24 53.7354C137.24 48.4101 132.828 44 127.5 44C122.172 44 117.76 48.4101 117.76 53.7354C117.76 59.0608 122.172 63.4708 127.5 63.4708ZM179.698 85.0218C185.026 85.0218 189.438 80.6118 189.438 75.2865C189.438 69.9611 185.026 65.5511 179.698 65.5511C174.37 65.5511 169.957 69.9611 169.957 75.2865C169.957 80.6118 174.37 85.0218 179.698 85.0218ZM201.26 137.194C206.588 137.194 211 132.784 211 127.458C211 122.05 206.588 117.723 201.26 117.723C195.932 117.723 191.519 122.05 191.519 127.458C191.519 132.784 195.932 137.194 201.26 137.194ZM179.698 189.366C185.026 189.366 189.438 184.956 189.438 179.63C189.438 174.221 185.026 169.895 179.698 169.895C174.37 169.895 169.957 174.221 169.957 179.63C169.957 184.956 174.37 189.366 179.698 189.366ZM127.5 210.917C132.828 210.917 137.24 206.506 137.24 201.181C137.24 195.773 132.828 191.446 127.5 191.446C122.172 191.446 117.76 195.773 117.76 201.181C117.76 206.506 122.172 210.917 127.5 210.917ZM75.3021 189.366C80.7132 189.366 85.0422 184.956 85.0422 179.63C85.0422 174.221 80.7132 169.895 75.3021 169.895C69.9741 169.895 65.5618 174.221 65.5618 179.63C65.5618 184.956 69.9741 189.366 75.3021 189.366Z" fill="white"/>
</g>
<defs>
<clipPath id="clip0_218_11">
<rect width="167" height="167" fill="white" transform="translate(44 44)"/>
</clipPath>
</defs>
</svg>
